<svg width="40" height="40" viewBox="0 0 40 40" fill="none" xmlns="http://www.w3.org/2000/svg">
  <!-- Book Shape -->
  <path d="M10 5C10 3.89543 10.8954 3 12 3H30C31.1046 3 32 3.89543 32 5V31C32 32.1046 31.1046 33 30 33H12C10.8954 33 10 32.1046 10 31V5Z" fill="#B34C3D"/>
  <!-- Book Spine Detail -->
  <path d="M10 5C10 3.89543 10.8954 3 12 3H14V33H12C10.8954 33 10 32.1046 10 31V5Z" fill="#6B5E55"/>
  <!-- Robot/AI Symbol (Simple Humanoid Head) -->
  <circle cx="21" cy="15" r="5" stroke="white" stroke-width="2"/>
  <rect x="18" y="21" width="6" height="4" rx="1" fill="white"/>
  <path d="M16 26C16 24.3431 17.3431 23 19 23H23C24.6569 23 26 24.3431 26 26" stroke="white" stroke-width="2"/>
  <!-- Pages Detail -->
  <line x1="32" y1="31" x2="32" y2="33" stroke="#DCDCDC" stroke-width="2"/>
  <path d="M10 31C10 32.1046 10.8954 33 12 33H30" stroke="#DCDCDC" stroke-width="2"/>
</svg>
